<svg xmlns="http://www.w3.org/2000/svg" viewBox="0 0 841.9 595.3">
  <!-- LOGO ICON ========================================================================================== -->
  <symbol id="logo" viewBox="0 0 565.81 140.42">
    <path xmlns="http://www.w3.org/2000/svg" d="M106,367.59l8.32,19.52c2.17,5.07,4,9.76,5.92,14.83h.36c1.93-5.44,3.86-10.14,5.79-15l8.2-19.33H146l-19.91,43.92,20.51,46.94H134.57L126,438c-2.3-5.25-4.23-10.32-6.28-15.76h-.24c-1.93,5.44-4,10.32-6.15,15.76l-8.45,20.47H93.19l20.75-46.37L94.15,367.59Z" transform="translate(-93.19 -341.49)" style="fill:#fff"/>
    <path xmlns="http://www.w3.org/2000/svg" d="M211.32,470.46c-6.64,5.45-13.39,7.51-21.48,7.51-19.79,0-36.56-22.53-36.56-58.57,0-38.67,17.25-72.09,44-72.09,21,0,35.12,22.9,35.12,54.26,0,28.15-10.14,44.68-21.48,44.68-4.83,0-9.29-5.07-8.93-16.53h-.49c-4.22,11.08-9.77,16.53-17,16.53-7,0-13-8.83-13-23.66,0-23.28,11.82-44.49,28.6-44.49A22.49,22.49,0,0,1,213,382l-4.1,34c-1.81,14.27-.37,20.84,3.62,21,6.15.18,13-12.58,13-34.36,0-27.22-10.5-46.74-29.2-46.74-19.67,0-36.2,24.21-36.2,62.32,0,31.35,13.15,50.69,31,50.69a27.38,27.38,0,0,0,18.22-6.57Zm-6.64-81.1a14.16,14.16,0,0,0-6-1.31c-10.62,0-19.19,15.58-19.19,33.79,0,8.26,2.66,14.27,8,14.27,7,0,13.39-13.89,14.72-25.53Z" transform="translate(-93.19 -341.49)" style="fill:#fff"/>
    <path xmlns="http://www.w3.org/2000/svg" d="M298.68,412.27c0,33.6-15,48.24-29.08,48.24-15.81,0-28-18-28-46.74,0-30.41,12.79-48.25,29-48.25C287.34,365.52,298.68,384.48,298.68,412.27Zm-46.33.94c0,19.89,7.36,34.91,17.73,34.91,10.14,0,17.74-14.83,17.74-35.29,0-15.39-4.94-34.92-17.49-34.92S252.35,395.93,252.35,413.21Z" transform="translate(-93.19 -341.49)" style="fill:#fff"/>
    <path xmlns="http://www.w3.org/2000/svg" d="M310.63,441.55c3.14,3.19,8.69,6.57,14,6.57,7.72,0,11.34-6,11.34-13.51,0-7.89-3-12.21-10.86-16.71-10.5-5.82-15.45-14.83-15.45-25.72,0-14.64,7.6-26.66,20.15-26.66a21.66,21.66,0,0,1,14.36,5.63l-2.65,12a17.51,17.51,0,0,0-11.95-5.26c-6.27,0-9.77,5.63-9.77,12.39,0,7.51,3.5,10.89,11.1,15.4,10.14,6,15.32,13.89,15.32,27.4,0,16-8,27.22-21.84,27.22A24.55,24.55,0,0,1,308,454.13Z" transform="translate(-93.19 -341.49)" style="fill:#fff"/>
    <path xmlns="http://www.w3.org/2000/svg" d="M411.39,472.53v9.38H351.05v-9.38Z" transform="translate(-93.19 -341.49)" style="fill:#e94e1b"/>
    <path xmlns="http://www.w3.org/2000/svg" d="M418.75,441.55c3.13,3.19,8.68,6.57,14,6.57,7.73,0,11.35-6,11.35-13.51,0-7.89-3-12.21-10.86-16.71-10.5-5.82-15.45-14.83-15.45-25.72,0-14.64,7.6-26.66,20.15-26.66a21.71,21.71,0,0,1,14.36,5.63l-2.65,12c-2.3-2.25-6.52-5.26-11.95-5.26-6.27,0-9.77,5.63-9.77,12.39,0,7.51,3.5,10.89,11.1,15.4,10.13,6,15.32,13.89,15.32,27.4,0,16-8,27.22-21.84,27.22a24.53,24.53,0,0,1-16.41-6.19Z" transform="translate(-93.19 -341.49)" style="fill:#e94e1b"/>
    <path xmlns="http://www.w3.org/2000/svg" d="M480.77,341.49v26.1H496v12.57h-15.2v49c0,11.27,2.05,17.65,8,17.65a15.66,15.66,0,0,0,6.16-1.13l.48,12.39a17.76,17.76,0,0,1-9.41,2.25,12.71,12.71,0,0,1-11.47-6.94c-3-4.88-4.1-12.95-4.1-23.66V380.16h-9.05V367.59h9.05V345.81Z" transform="translate(-93.19 -341.49)" style="fill:#e94e1b"/>
    <path xmlns="http://www.w3.org/2000/svg" d="M560.05,412.27c0,33.6-15,48.24-29.08,48.24-15.81,0-28-18-28-46.74,0-30.41,12.79-48.25,29-48.25C548.7,365.52,560.05,384.48,560.05,412.27Zm-46.34.94c0,19.89,7.36,34.91,17.74,34.91,10.14,0,17.74-14.83,17.74-35.29,0-15.39-5-34.92-17.5-34.92S513.71,395.93,513.71,413.21Z" transform="translate(-93.19 -341.49)" style="fill:#e94e1b"/>
    <path xmlns="http://www.w3.org/2000/svg" d="M573.44,395.93c0-10.7-.12-19.9-.48-28.34h9.29l.36,17.83h.48c2.66-12.2,9-19.9,16.17-19.9a7.74,7.74,0,0,1,3,.56v15.59a10.42,10.42,0,0,0-3.62-.57c-7.48,0-12.79,8.83-14.24,21.22a72,72,0,0,0-.48,7.69v48.44h-10.5Z" transform="translate(-93.19 -341.49)" style="fill:#e94e1b"/>
    <path xmlns="http://www.w3.org/2000/svg" d="M617.61,416c.24,22.34,9.41,31.54,20,31.54a27.11,27.11,0,0,0,16.17-4.69l1.81,11.82c-3.74,2.63-10.14,5.63-19.43,5.63-18,0-28.72-18.39-28.72-45.8s10.38-49,27.39-49c19.07,0,24.13,26.1,24.13,42.8,0,3.38-.24,6-.36,7.7Zm31.13-11.83c.12-10.51-2.78-26.84-14.72-26.84-10.74,0-15.45,15.39-16.29,26.84Z" transform="translate(-93.19 -341.49)" style="fill:#e94e1b"/>
  </symbol>
  <symbol id="logo_h" viewBox="0 0 565.81 140.42">
    <path xmlns="http://www.w3.org/2000/svg" d="M106,367.59l8.32,19.52c2.17,5.07,4,9.76,5.92,14.83h.36c1.93-5.44,3.86-10.14,5.79-15l8.2-19.33H146l-19.91,43.92,20.51,46.94H134.57L126,438c-2.3-5.25-4.23-10.32-6.28-15.76h-.24c-1.93,5.44-4,10.32-6.15,15.76l-8.45,20.47H93.19l20.75-46.37L94.15,367.59Z" transform="translate(-93.19 -341.49)" style="fill:#fff"/>
    <path xmlns="http://www.w3.org/2000/svg" d="M211.32,470.46c-6.64,5.45-13.39,7.51-21.48,7.51-19.79,0-36.56-22.53-36.56-58.57,0-38.67,17.25-72.09,44-72.09,21,0,35.12,22.9,35.12,54.26,0,28.15-10.14,44.68-21.48,44.68-4.83,0-9.29-5.07-8.93-16.53h-.49c-4.22,11.08-9.77,16.53-17,16.53-7,0-13-8.83-13-23.66,0-23.28,11.82-44.49,28.6-44.49A22.49,22.49,0,0,1,213,382l-4.1,34c-1.81,14.27-.37,20.84,3.62,21,6.15.18,13-12.58,13-34.36,0-27.22-10.5-46.74-29.2-46.74-19.67,0-36.2,24.21-36.2,62.32,0,31.35,13.15,50.69,31,50.69a27.38,27.38,0,0,0,18.22-6.57Zm-6.64-81.1a14.16,14.16,0,0,0-6-1.31c-10.62,0-19.19,15.58-19.19,33.79,0,8.26,2.66,14.27,8,14.27,7,0,13.39-13.89,14.72-25.53Z" transform="translate(-93.19 -341.49)" style="fill:#e94e1b"/>
    <path xmlns="http://www.w3.org/2000/svg" d="M298.68,412.27c0,33.6-15,48.24-29.08,48.24-15.81,0-28-18-28-46.74,0-30.41,12.79-48.25,29-48.25C287.34,365.52,298.68,384.48,298.68,412.27Zm-46.33.94c0,19.89,7.36,34.91,17.73,34.91,10.14,0,17.74-14.83,17.74-35.29,0-15.39-4.94-34.92-17.49-34.92S252.35,395.93,252.35,413.21Z" transform="translate(-93.19 -341.49)" style="fill:#fff"/>
    <path xmlns="http://www.w3.org/2000/svg" d="M310.63,441.55c3.14,3.19,8.69,6.57,14,6.57,7.72,0,11.34-6,11.34-13.51,0-7.89-3-12.21-10.86-16.71-10.5-5.82-15.45-14.83-15.45-25.72,0-14.64,7.6-26.66,20.15-26.66a21.66,21.66,0,0,1,14.36,5.63l-2.65,12a17.51,17.51,0,0,0-11.95-5.26c-6.27,0-9.77,5.63-9.77,12.39,0,7.51,3.5,10.89,11.1,15.4,10.14,6,15.32,13.89,15.32,27.4,0,16-8,27.22-21.84,27.22A24.55,24.55,0,0,1,308,454.13Z" transform="translate(-93.19 -341.49)" style="fill:#fff"/>
    <path xmlns="http://www.w3.org/2000/svg" d="M411.39,472.53v9.38H351.05v-9.38Z" transform="translate(-93.19 -341.49)" style="fill:#e94e1b"/>
    <path xmlns="http://www.w3.org/2000/svg" d="M418.75,441.55c3.13,3.19,8.68,6.57,14,6.57,7.73,0,11.35-6,11.35-13.51,0-7.89-3-12.21-10.86-16.71-10.5-5.82-15.45-14.83-15.45-25.72,0-14.64,7.6-26.66,20.15-26.66a21.71,21.71,0,0,1,14.36,5.63l-2.65,12c-2.3-2.25-6.52-5.26-11.95-5.26-6.27,0-9.77,5.63-9.77,12.39,0,7.51,3.5,10.89,11.1,15.4,10.13,6,15.32,13.89,15.32,27.4,0,16-8,27.22-21.84,27.22a24.53,24.53,0,0,1-16.41-6.19Z" transform="translate(-93.19 -341.49)" style="fill:#e94e1b"/>
    <path xmlns="http://www.w3.org/2000/svg" d="M480.77,341.49v26.1H496v12.57h-15.2v49c0,11.27,2.05,17.65,8,17.65a15.66,15.66,0,0,0,6.16-1.13l.48,12.39a17.76,17.76,0,0,1-9.41,2.25,12.71,12.71,0,0,1-11.47-6.94c-3-4.88-4.1-12.95-4.1-23.66V380.16h-9.05V367.59h9.05V345.81Z" transform="translate(-93.19 -341.49)" style="fill:#e94e1b"/>
    <path xmlns="http://www.w3.org/2000/svg" d="M560.05,412.27c0,33.6-15,48.24-29.08,48.24-15.81,0-28-18-28-46.74,0-30.41,12.79-48.25,29-48.25C548.7,365.52,560.05,384.48,560.05,412.27Zm-46.34.94c0,19.89,7.36,34.91,17.74,34.91,10.14,0,17.74-14.83,17.74-35.29,0-15.39-5-34.92-17.5-34.92S513.71,395.93,513.71,413.21Z" transform="translate(-93.19 -341.49)" style="fill:#e94e1b"/>
    <path xmlns="http://www.w3.org/2000/svg" d="M573.44,395.93c0-10.7-.12-19.9-.48-28.34h9.29l.36,17.83h.48c2.66-12.2,9-19.9,16.17-19.9a7.74,7.74,0,0,1,3,.56v15.59a10.42,10.42,0,0,0-3.62-.57c-7.48,0-12.79,8.83-14.24,21.22a72,72,0,0,0-.48,7.69v48.44h-10.5Z" transform="translate(-93.19 -341.49)" style="fill:#e94e1b"/>
    <path xmlns="http://www.w3.org/2000/svg" d="M617.61,416c.24,22.34,9.41,31.54,20,31.54a27.11,27.11,0,0,0,16.17-4.69l1.81,11.82c-3.74,2.63-10.14,5.63-19.43,5.63-18,0-28.72-18.39-28.72-45.8s10.38-49,27.39-49c19.07,0,24.13,26.1,24.13,42.8,0,3.38-.24,6-.36,7.7Zm31.13-11.83c.12-10.51-2.78-26.84-14.72-26.84-10.74,0-15.45,15.39-16.29,26.84Z" transform="translate(-93.19 -341.49)" style="fill:#e94e1b"/>
  </symbol>

  <!-- HEADER ICONS ======================================================================================= -->
  <symbol id="basket" viewBox="0 0 27 24">
    <path xmlns="http://www.w3.org/2000/svg" fill-rule="evenodd" clip-rule="evenodd" d="M8.5 1.5C8.5 2.5 6 2.5 4.5 2.5C3 2.5 0.5 2.5 0.5 1.5C0.5 0.5 3 0.5 4.5 0.5C6 0.5 8.5 0.5 8.5 1.5ZM11.8212 16.119C11.3452 16.1949 10.8829 15.9206 10.7214 15.4665L7.48289 6.35812C7.24913 5.70067 7.74355 5.01199 8.44122 5.02324L25.8008 5.30317C26.425 5.31324 26.8875 5.88644 26.7654 6.49865L25.4106 13.2909C25.3288 13.701 25.0004 14.017 24.5874 14.0828L11.8212 16.119ZM13.6523 21.0331C13.6523 22.3178 12.6109 23.3593 11.3262 23.3593C10.0415 23.3593 9 22.3178 9 21.0331C9 19.7484 10.0415 18.707 11.3262 18.707C12.6109 18.707 13.6523 19.7484 13.6523 21.0331ZM22.957 23.3593C24.2417 23.3593 25.2832 22.3178 25.2832 21.0331C25.2832 19.7484 24.2417 18.707 22.957 18.707C21.6723 18.707 20.6309 19.7484 20.6309 21.0331C20.6309 22.3178 21.6723 23.3593 22.957 23.3593Z" fill="white"/>
  </symbol>
  <symbol id="close_x" viewBox="0 0 20.73 21.83">
    <path xmlns="http://www.w3.org/2000/svg" d="M20.22,19l-7.65-8.13,7.65-8.14a1.65,1.65,0,0,0,0-2.31,1.59,1.59,0,0,0-2.28,0l-7.56,8L2.79.51A1.61,1.61,0,0,0,.66.46,1.67,1.67,0,0,0,.45,2.78L8.09,10.9.45,19a1.65,1.65,0,0,0,1.17,2.81,1.63,1.63,0,0,0,1.17-.5l7.54-8,7.56,8a1.64,1.64,0,0,0,1.16.51,1.6,1.6,0,0,0,1.12-.41l.07-.06A1.67,1.67,0,0,0,20.22,19Z" transform="translate(0.03 0)" style="fill-rule:evenodd"/>
  </symbol>
  <symbol id="phone" viewBox="0 0 32 32">
    <path xmlns="http://www.w3.org/2000/svg" d="M18,23.39c3.17,3.16,6.84,6.18,8.28,4.72,2.06-2.09,3.33-3.9,7.91-.23S35.25,34,33.25,36c-2.3,2.33-10.94.16-19.5-8.37S3,10.47,5.27,8.13c2-2,4.43-5.55,8.12-1s1.89,5.86-.18,8C11.77,16.56,14.81,20.22,18,23.39Z" transform="translate(-4.42 -4.92)" style="fill-rule:evenodd"/>
  </symbol>

  <!-- PRODUCT CARD ++++++++++++++++++++++++++++++++++++++++++++++++++++++++++++++++++++++++++++++ -->
  <symbol id="go_back" viewBox="0 0 25.45 25.28">
    <path xmlns="http://www.w3.org/2000/svg" d="M25,11.77H3.93L12,1.92A1.07,1.07,0,0,0,11.88.41a1.07,1.07,0,0,0-1.51.14L.88,12.12a3.44,3.44,0,0,0-.2.34.29.29,0,0,0,0,.09,1,1,0,0,0,0,.28v.07l0,.06a.78.78,0,0,0,0,.21,2,2,0,0,0,.32.5l9.38,11.38A1.08,1.08,0,1,0,12,23.67L4,13.94H25a1.08,1.08,0,1,0,0-2.16Z" transform="translate(-0.62 -0.16)"/>
 </symbol>
  <symbol id="add-to-cart-svg" viewBox="0 0 23 21">
    <path d="M15.8666 5.4736H17.8077L14.9302 0.536804C14.6983 0.136769 14.1846 0.000392854 13.7846 0.236777C13.3846 0.468616 13.2482 0.982298 13.4846 1.38233L15.8666 5.4736Z" fill="white"/>
    <path d="M9.27965 1.38227C9.51149 0.98223 9.37966 0.468549 8.97962 0.23671C8.57959 0.00487147 8.06591 0.136701 7.83407 0.536736L4.95654 5.47808H6.89762L9.27965 1.38227Z" fill="white"/>
    <path d="M21.0216 6.9873H1.729C0.942572 6.9873 0.306152 7.62372 0.306152 8.41016V9.98757C0.306152 10.774 0.942572 11.4104 1.729 11.4104H2.1745L3.54735 18.852C3.72009 19.7293 4.52016 20.4249 5.35205 20.4249H5.89755H9.47969C9.84336 20.4249 10.3161 20.4249 10.798 20.4249H11.2344H11.6708C12.1526 20.4249 12.6254 20.4249 12.9891 20.4249H16.5712H17.1167C17.9486 20.4249 18.7487 19.7293 18.9214 18.852L20.3034 11.4059H21.0262C21.8126 11.4059 22.449 10.7695 22.449 9.98302V8.40561C22.4445 7.62372 21.808 6.9873 21.0216 6.9873ZM8.16139 14.4243V17.6337C8.16139 18.0928 7.78863 18.4383 7.35677 18.4383C6.89764 18.4383 6.55216 18.0656 6.55216 17.6337V16.2881V13.1333C6.55216 12.6742 6.92492 12.3287 7.35677 12.3287C7.8159 12.3287 8.16139 12.7014 8.16139 13.1333V14.4243ZM10.7434 14.4243V17.6337C10.7434 18.0928 10.3707 18.4383 9.93882 18.4383C9.47969 18.4383 9.1342 18.0656 9.1342 17.6337V16.2881V13.1333C9.1342 12.6742 9.50696 12.3287 9.93882 12.3287C10.3707 12.3287 10.7434 12.7014 10.7434 13.1333V14.4243ZM13.3391 16.2881V17.6337C13.3391 18.0656 12.9936 18.4383 12.5345 18.4383C12.1026 18.4383 11.7299 18.0928 11.7299 17.6337V14.4243V13.1333C11.7299 12.7014 12.1026 12.3287 12.5345 12.3287C12.9664 12.3287 13.3391 12.6742 13.3391 13.1333V16.2881ZM15.9212 16.2881V17.6337C15.9212 18.0656 15.5757 18.4383 15.1165 18.4383C14.6847 18.4383 14.3119 18.0928 14.3119 17.6337V14.4243V13.1333C14.3119 12.7014 14.6574 12.3287 15.1165 12.3287C15.5484 12.3287 15.9212 12.6742 15.9212 13.1333V16.2881Z" fill="white"/>
  </symbol>
  <symbol id="favorite-outline" viewBox="0 0 33 28.1">
    <path xmlns="http://www.w3.org/2000/svg" d="M16.5,27.9c-1.3,0-2.5-0.5-3.4-1.4l-9.7-9.7c-1.9-1.9-3-4.5-2.9-7.2c0-2.4,1-4.8,2.7-6.5C5,1.2,7.3,0.2,9.8,0.2l0.3,0   c2.3,0,4.6,0.9,6.4,2.5c1.8-1.6,4.1-2.5,6.5-2.5c2.1,0,4.1,0.6,5.7,1.9c4.2,3.3,5,9.3,1.9,13.5c-0.2,0.3-0.6,0.7-0.9,1l-9.9,9.9   C18.8,27.4,17.7,27.9,16.5,27.9z M9.8,2.9c-1.8,0-3.4,0.7-4.7,2C3.9,6.1,3.2,7.8,3.2,9.6c-0.1,2,0.7,3.9,2.1,5.3l9.8,9.8   c0.4,0.4,0.9,0.6,1.4,0.6c0.5,0,1.1-0.2,1.5-0.6l9.9-9.9c0.2-0.2,0.4-0.4,0.6-0.7c2.3-3.1,1.7-7.5-1.3-9.8C26,3.4,24.5,2.9,23,2.9   c-1.9,0-3.8,0.8-5.1,2.1l-1.4,1.4l-1.6-1.6c-1.3-1.2-3-2-4.8-2l-0.1,0L9.8,2.9z" style="fill:evendod" />
  </symbol>
  <symbol id="favorite-red" viewBox="0 0 25.41 21.78">
    <path xmlns="http://www.w3.org/2000/svg" d="M14,24.64a2.38,2.38,0,0,1-1.73-.74L4,15.66a6.66,6.66,0,0,1-2-4.95A6.32,6.32,0,0,1,8.53,4.37a6.48,6.48,0,0,1,4.61,1.89l.83.83.66-.66a6.66,6.66,0,0,1,8.73-.74,6.65,6.65,0,0,1,1.24,9.23,4.22,4.22,0,0,1-.58.66L15.7,24A2.68,2.68,0,0,1,14,24.64Z" transform="translate(-1.26 -3.61)" style="fill:#fc0000;stroke:#fc0000;stroke-miterlimit:10;stroke-width:1.5px"/>
  </symbol>
  <symbol id="like" viewBox="0 0 20 21">
    <path xmlns="http://www.w3.org/2000/svg" d="M19.07 11.737a3.689 3.689 0 00.61-2.057c0-.867-.315-1.62-.945-2.26-.63-.639-1.375-.959-2.237-.959h-2.187c.397-.832.597-1.64.597-2.423 0-.984-.146-1.766-.436-2.347A2.752 2.752 0 0013.205.41C12.649.137 12.024 0 11.328 0c-.423 0-.795.156-1.118.467-.357.353-.613.808-.77 1.363a17.973 17.973 0 00-.38 1.596c-.095.51-.242.87-.441 1.08-.406.445-.85.984-1.33 1.615-.837 1.102-1.404 1.754-1.702 1.956H2.182c-.44 0-.815.158-1.125.473A1.57 1.57 0 00.59 9.692v8.077c0 .446.155.827.466 1.142.31.316.685.473 1.125.473H5.76c.183 0 .754.169 1.715.505 1.02.362 1.916.638 2.691.827a9.88 9.88 0 002.355.284h1.603c1.168 0 2.109-.339 2.821-1.016.712-.678 1.065-1.6 1.057-2.77.497-.648.745-1.397.745-2.247a3.89 3.89 0 00-.037-.542c.315-.564.472-1.17.472-1.817a3.34 3.34 0 00-.112-.871z" fill=""/>
  </symbol>
  <!-- FOOTER INFO ICONS ++++++++++++++++++++++++++++++++++++++++++++++++++++++++++++++++++++++++++++++ -->
  <symbol id="about" viewBox="0 0 27.2 27.2">
    <path xmlns="http://www.w3.org/2000/svg" d="M14.9,15.4H11.2l1-3.6h3.7Zm6.6-3.6.7-2.7H19.4l.7-2.7H17.3l-.7,2.7H13l.7-2.7H11l-.7,2.7H7.5l-.8,2.7H9.5l-1,3.6H5.7L5,18.1H7.8L7,20.8H9.8l.8-2.7h3.7l-.7,2.7h2.8l.7-2.7h2.8l.7-2.7H17.8l1-3.6Z" transform="translate(0 0)" style="fill:#3f3f3f"/>
  </symbol>
  <symbol id="add_product" viewBox="0 0 27.2 27.2">
    <path xmlns="http://www.w3.org/2000/svg" d="M13.9,12.8h3.8a.4.4,0,0,1,0,.8H13.9v3.8a.4.4,0,0,1-.8,0V13.6H9.3a.4.4,0,0,1,0-.8h3.8V9a.4.4,0,0,1,.8,0Z" transform="translate(0 0)" style="fill:#3f3f3f;stroke:#3f3f3f;stroke-miterlimit:10;stroke-width:0.5px"/>
    <path xmlns="http://www.w3.org/2000/svg" d="M7.6,5.2a.46.46,0,0,1,.4.5.37.37,0,0,1-.4.4A1.32,1.32,0,0,0,6.3,7.4a.4.4,0,1,1-.8,0A2.2,2.2,0,0,1,7.6,5.2Z" transform="translate(0 0)" style="fill:#3f3f3f;stroke:#3f3f3f;stroke-miterlimit:10;stroke-width:0.5px"/>
    <path xmlns="http://www.w3.org/2000/svg" d="M19.4,6.1a.43.43,0,0,1-.4-.4.43.43,0,0,1,.4-.4,2.05,2.05,0,0,1,2.1,2.1v.1a.4.4,0,1,1-.8,0V7.3A1.24,1.24,0,0,0,19.4,6.1Z" transform="translate(0 0)" style="fill:#3f3f3f;stroke:#3f3f3f;stroke-miterlimit:10;stroke-width:0.5px"/>
    <path xmlns="http://www.w3.org/2000/svg" d="M5.5,19.1a.4.4,0,0,1,.8,0,1.32,1.32,0,0,0,1.3,1.3.4.4,0,0,1,0,.8A2.11,2.11,0,0,1,5.5,19.1Z" transform="translate(0 0)" style="fill:#3f3f3f;stroke:#3f3f3f;stroke-miterlimit:10;stroke-width:0.5px"/>
    <path xmlns="http://www.w3.org/2000/svg" d="M19.4,21.2a.4.4,0,0,1,0-.8,1.32,1.32,0,0,0,1.3-1.3.4.4,0,1,1,.8,0A2.05,2.05,0,0,1,19.4,21.2Z" transform="translate(0 0)" style="fill:#3f3f3f;stroke:#3f3f3f;stroke-miterlimit:10;stroke-width:0.5px"/>
    <path xmlns="http://www.w3.org/2000/svg" d="M14.9,6.1c-.6,0-.6-.1-.6-.4s0-.5.6-.5h2c.6,0,.7.2.7.4s-.1.4-.6.4Z" transform="translate(0 0)" style="fill:#3f3f3f;stroke:#3f3f3f;stroke-miterlimit:10;stroke-width:0.5px"/>
    <path xmlns="http://www.w3.org/2000/svg" d="M10.2,6.1c-.6,0-.6-.1-.6-.4s0-.5.6-.5h2c.6,0,.7.2.7.4s-.1.4-.6.4Z" transform="translate(0 0)" style="fill:#3f3f3f;stroke:#3f3f3f;stroke-miterlimit:10;stroke-width:0.5px"/>
    <path xmlns="http://www.w3.org/2000/svg" d="M14.9,21.3c-.6,0-.6-.1-.6-.4s0-.5.6-.5h2c.6,0,.7.2.7.4s-.1.4-.6.4Z" transform="translate(0 0)" style="fill:#3f3f3f;stroke:#3f3f3f;stroke-miterlimit:10;stroke-width:0.5px"/>
    <path xmlns="http://www.w3.org/2000/svg" d="M10.1,21.3c-.6,0-.6-.1-.6-.4s0-.5.6-.5h2c.6,0,.7.2.7.4s-.1.4-.6.4Z" transform="translate(0 0)" style="fill:#3f3f3f;stroke:#3f3f3f;stroke-miterlimit:10;stroke-width:0.5px"/>
    <path xmlns="http://www.w3.org/2000/svg" d="M20.6,14.6c0-.6.2-.6.4-.6s.5,0,.5.6v2c0,.6-.2.6-.4.6s-.4-.1-.4-.6Z" transform="translate(0 0)" style="fill:#3f3f3f;stroke:#3f3f3f;stroke-miterlimit:10;stroke-width:0.5px"/>
    <path xmlns="http://www.w3.org/2000/svg" d="M20.7,9.9c0-.6.2-.6.4-.6s.5,0,.5.6v2c0,.6-.2.6-.4.6s-.4-.1-.4-.6Z" transform="translate(0 0)" style="fill:#3f3f3f;stroke:#3f3f3f;stroke-miterlimit:10;stroke-width:0.5px"/>
    <path xmlns="http://www.w3.org/2000/svg" d="M5.5,14.6c0-.6.2-.6.4-.6s.5,0,.5.6v2c0,.6-.2.6-.4.6s-.4-.1-.4-.6Z" transform="translate(0 0)" style="fill:#3f3f3f;stroke:#3f3f3f;stroke-miterlimit:10;stroke-width:0.5px"/>
    <path xmlns="http://www.w3.org/2000/svg" d="M5.6,9.8c0-.6.2-.6.4-.6s.5,0,.5.6v2c0,.6-.2.6-.4.6s-.4-.1-.4-.6Z" transform="translate(0 0)" style="fill:#3f3f3f;stroke:#3f3f3f;stroke-miterlimit:10;stroke-width:0.5px"/>
  </symbol>
  <symbol id="contacts" viewBox="0 0 27.2 27.2">
    <path xmlns="http://www.w3.org/2000/svg" d="M23.2,12.1a5.72,5.72,0,0,1-2.8,5,5.13,5.13,0,0,1-3,1,2.73,2.73,0,0,1-1.6-.4,1.65,1.65,0,0,1-.7-1.6A4.12,4.12,0,0,1,11.9,18a3.18,3.18,0,0,1-2.5-.9,3.2,3.2,0,0,1-.8-2.3,6,6,0,0,1,1.5-4A5.51,5.51,0,0,1,14.4,9a2.56,2.56,0,0,1,2.1.8l.1-.5,2-.3.3.3c-.5,1.6-.9,3-1.2,4.4a16,16,0,0,0-.5,2.7c0,.6.2.9.7.9a2.46,2.46,0,0,0,1.7-.8,4,4,0,0,0,1-1.5,6.68,6.68,0,0,0,.6-3,4.54,4.54,0,0,0-2.8-4.4,8.15,8.15,0,0,0-3.7-.7,8.92,8.92,0,0,0-7.4,3.8,7.3,7.3,0,0,0-1.1,3.8,6,6,0,0,0,1.7,4.3,7,7,0,0,0,5.3,1.9,10.83,10.83,0,0,0,6.6-2.1l.2.2a6.37,6.37,0,0,0-.2.7,11.66,11.66,0,0,1-6.9,2c-3.7,0-6.3-1.1-7.9-3.2a6.07,6.07,0,0,1-1.2-3.7,7.29,7.29,0,0,1,1.4-4.2,10.18,10.18,0,0,1,3.7-3,13.82,13.82,0,0,1,5.9-1.2,10.22,10.22,0,0,1,5.9,1.6A4.86,4.86,0,0,1,23.2,12.1Zm-7.5-.9c0-.9-.4-1.4-1.3-1.4s-1.9.9-2.7,2.6a5.25,5.25,0,0,0-.6,2.3c0,.9.1,1.4.4,1.7a1.22,1.22,0,0,0,.9.4,1.89,1.89,0,0,0,1.4-.7A7.44,7.44,0,0,0,15.3,13,4.54,4.54,0,0,0,15.7,11.2Z" transform="translate(0 -0.1)" style="fill:#3f3f3f"/>
  </symbol>
  <symbol id="delivery" viewBox="0 0 27.2 27.2">
    <path xmlns="http://www.w3.org/2000/svg" d="M23.7,19a4.1,4.1,0,1,1-8.2,0,3.41,3.41,0,0,1,.7-2.2A3.35,3.35,0,0,1,18,15.3l-.3-.8-4.5,5.4L12,19.8a3.71,3.71,0,0,1-1.4,2.4,4.49,4.49,0,0,1-2.7,1,4.1,4.1,0,1,1,0-8.2,4.15,4.15,0,0,1,1.6.3l1-2.2-.4-1h.1l-.3-.7a1.48,1.48,0,0,1-.7-.1c-.3-.1-.5-.2-.5-.4,0-.4.1-.6.4-.6a1.76,1.76,0,0,1,.6.1,1.34,1.34,0,0,0,.5.1h.9c.2,0,.2.1.2.3s-.1.2-.4.3a1.33,1.33,0,0,1-.7.3l.3.7h.1l.3.7h6.2l-.5-1.4v-.5H19v.5H17.1l1.4,4a5.85,5.85,0,0,1,1.3-.2,4,4,0,0,1,2.9,1.2A3.46,3.46,0,0,1,23.7,19Zm-12.3.7-3.9-.4,1.7-3.7a3.53,3.53,0,0,0-1.4-.3,3.63,3.63,0,0,0-2.6,1.1,4.21,4.21,0,0,0-1,2.6,3.76,3.76,0,0,0,3.7,3.7,4.07,4.07,0,0,0,2.4-.8A3,3,0,0,0,11.4,19.7Zm.1-.5V19a3.41,3.41,0,0,0-1.9-3.2L8.2,18.9Zm1.3.2-2.1-5.7-.8,1.8A3.89,3.89,0,0,1,12,19.1v.3ZM17.5,14l-.4-1H10.9l2.2,6.1Zm5.8,5a3.76,3.76,0,0,0-3.7-3.7,5,5,0,0,0-1.2.2c.4,1.2.8,2.2,1,2.8l.3.8a.22.22,0,0,1-.2.2c-.1,0-.3-.2-.5-.7l-1.1-2.9a3.72,3.72,0,1,0,4.4,5.9A3.54,3.54,0,0,0,23.3,19Z" transform="translate(-0.1 -3)" style="fill:#3f3f3f"/>
    <path xmlns="http://www.w3.org/2000/svg" d="M23.7,19a4.1,4.1,0,1,1-8.2,0,3.41,3.41,0,0,1,.7-2.2A3.35,3.35,0,0,1,18,15.3l-.3-.8-4.5,5.4L12,19.8a3.71,3.71,0,0,1-1.4,2.4,4.49,4.49,0,0,1-2.7,1,4.1,4.1,0,1,1,0-8.2,4.15,4.15,0,0,1,1.6.3l1-2.2-.4-1h.1l-.3-.7a1.48,1.48,0,0,1-.7-.1c-.3-.1-.5-.2-.5-.4,0-.4.1-.6.4-.6a1.76,1.76,0,0,1,.6.1,1.34,1.34,0,0,0,.5.1h.9c.2,0,.2.1.2.3s-.1.2-.4.3a1.33,1.33,0,0,1-.7.3l.3.7h.1l.3.7h6.2l-.5-1.4v-.5H19v.5H17.1l1.4,4a5.85,5.85,0,0,1,1.3-.2,4,4,0,0,1,2.9,1.2A3.46,3.46,0,0,1,23.7,19Zm-12.3.7-3.9-.4,1.7-3.7a3.53,3.53,0,0,0-1.4-.3,3.63,3.63,0,0,0-2.6,1.1,4.21,4.21,0,0,0-1,2.6,3.76,3.76,0,0,0,3.7,3.7,4.07,4.07,0,0,0,2.4-.8A3,3,0,0,0,11.4,19.7Zm.1-.5V19a3.41,3.41,0,0,0-1.9-3.2L8.2,18.9Zm1.3.2-2.1-5.7-.8,1.8A3.89,3.89,0,0,1,12,19.1v.3ZM17.5,14l-.4-1H10.9l2.2,6.1Zm5.8,5a3.76,3.76,0,0,0-3.7-3.7,5,5,0,0,0-1.2.2c.4,1.2.8,2.2,1,2.8l.3.8a.22.22,0,0,1-.2.2c-.1,0-.3-.2-.5-.7l-1.1-2.9a3.72,3.72,0,1,0,4.4,5.9A3.54,3.54,0,0,0,23.3,19Z" transform="translate(-0.1 -3)" style="fill:none;stroke:#3f3f3f;stroke-miterlimit:10;stroke-width:0.30000001192092896px"/>
  </symbol>
  <symbol id="mail" viewBox="0 0 27.2 27.2">
    <path xmlns="http://www.w3.org/2000/svg" d="M23.2,12.1a5.72,5.72,0,0,1-2.8,5,5.13,5.13,0,0,1-3,1,2.73,2.73,0,0,1-1.6-.4,1.65,1.65,0,0,1-.7-1.6A4.12,4.12,0,0,1,11.9,18a3.18,3.18,0,0,1-2.5-.9,3.2,3.2,0,0,1-.8-2.3,6,6,0,0,1,1.5-4A5.51,5.51,0,0,1,14.4,9a2.56,2.56,0,0,1,2.1.8l.1-.5,2-.3.3.3c-.5,1.6-.9,3-1.2,4.4a16,16,0,0,0-.5,2.7c0,.6.2.9.7.9a2.46,2.46,0,0,0,1.7-.8,4,4,0,0,0,1-1.5,6.68,6.68,0,0,0,.6-3,4.54,4.54,0,0,0-2.8-4.4,8.15,8.15,0,0,0-3.7-.7,8.92,8.92,0,0,0-7.4,3.8,7.3,7.3,0,0,0-1.1,3.8,6,6,0,0,0,1.7,4.3,7,7,0,0,0,5.3,1.9,10.83,10.83,0,0,0,6.6-2.1l.2.2a6.37,6.37,0,0,0-.2.7,11.66,11.66,0,0,1-6.9,2c-3.7,0-6.3-1.1-7.9-3.2a6.07,6.07,0,0,1-1.2-3.7,7.29,7.29,0,0,1,1.4-4.2,10.18,10.18,0,0,1,3.7-3,13.82,13.82,0,0,1,5.9-1.2,10.22,10.22,0,0,1,5.9,1.6A4.86,4.86,0,0,1,23.2,12.1Zm-7.5-.9c0-.9-.4-1.4-1.3-1.4s-1.9.9-2.7,2.6a5.25,5.25,0,0,0-.6,2.3c0,.9.1,1.4.4,1.7a1.22,1.22,0,0,0,.9.4,1.89,1.89,0,0,0,1.4-.7A7.44,7.44,0,0,0,15.3,13,4.54,4.54,0,0,0,15.7,11.2Z" transform="translate(0 -0.1)" style="fill:#f9b50b"/>
    <path xmlns="http://www.w3.org/2000/svg" d="M23.2,12.1a5.72,5.72,0,0,1-2.8,5,5.13,5.13,0,0,1-3,1,2.73,2.73,0,0,1-1.6-.4,1.65,1.65,0,0,1-.7-1.6A4.12,4.12,0,0,1,11.9,18a3.18,3.18,0,0,1-2.5-.9,3.2,3.2,0,0,1-.8-2.3,6,6,0,0,1,1.5-4A5.51,5.51,0,0,1,14.4,9a2.56,2.56,0,0,1,2.1.8l.1-.5,2-.3.3.3c-.5,1.6-.9,3-1.2,4.4a16,16,0,0,0-.5,2.7c0,.6.2.9.7.9a2.46,2.46,0,0,0,1.7-.8,4,4,0,0,0,1-1.5,6.68,6.68,0,0,0,.6-3,4.54,4.54,0,0,0-2.8-4.4,8.15,8.15,0,0,0-3.7-.7,8.92,8.92,0,0,0-7.4,3.8,7.3,7.3,0,0,0-1.1,3.8,6,6,0,0,0,1.7,4.3,7,7,0,0,0,5.3,1.9,10.83,10.83,0,0,0,6.6-2.1l.2.2a6.37,6.37,0,0,0-.2.7,11.66,11.66,0,0,1-6.9,2c-3.7,0-6.3-1.1-7.9-3.2a6.07,6.07,0,0,1-1.2-3.7,7.29,7.29,0,0,1,1.4-4.2,10.18,10.18,0,0,1,3.7-3,13.82,13.82,0,0,1,5.9-1.2,10.22,10.22,0,0,1,5.9,1.6A4.86,4.86,0,0,1,23.2,12.1Zm-7.5-.9c0-.9-.4-1.4-1.3-1.4s-1.9.9-2.7,2.6a5.25,5.25,0,0,0-.6,2.3c0,.9.1,1.4.4,1.7a1.22,1.22,0,0,0,.9.4,1.89,1.89,0,0,0,1.4-.7A7.44,7.44,0,0,0,15.3,13,4.54,4.54,0,0,0,15.7,11.2Z" transform="translate(0 -0.1)" style="fill:#f9b50b;stroke:#f9b50b;stroke-miterlimit:10;stroke-width:0.25px"/>
  </symbol>
  <symbol id="pay" viewBox="0 0 27.2 27.2">
    <path xmlns="http://www.w3.org/2000/svg" d="M14,20.7V23H13V20.8A6.23,6.23,0,0,1,9.5,20V18.2a5.07,5.07,0,0,0,1.6.9,6.28,6.28,0,0,0,1.9.3V14.1a7.22,7.22,0,0,1-2.9-2A3.32,3.32,0,0,1,9.4,10a3.54,3.54,0,0,1,1-2.6A4.32,4.32,0,0,1,13,6.1V4.2h1.1V6a6.71,6.71,0,0,1,2.8.6V8.3a4.68,4.68,0,0,0-2.8-.9v5.4a8.37,8.37,0,0,1,2.9,2,3.5,3.5,0,0,1-.2,4.6A4.55,4.55,0,0,1,14,20.7Zm-1-8.4V7.5a2.85,2.85,0,0,0-1.4.8,2.39,2.39,0,0,0-.5,1.4,1.87,1.87,0,0,0,.5,1.4A2.76,2.76,0,0,0,13,12.3Zm1,2.4v4.6c1.3-.3,2-1,2-2.1S15.4,15.4,14,14.7Z" transform="translate(0 0)" style="fill:#3f3f3f"/>
  </symbol>
  <symbol id="payments" viewBox="0 0 27.2 27.2">
    <path xmlns="http://www.w3.org/2000/svg" d="M7.2,18.7l-2-2.8c-.7-.9-.9-1.6-.7-2.1s.8-1.1,2.1-1.9L13,7.6a5.82,5.82,0,0,1,2.5-1.2c.5,0,1.1.5,1.8,1.4l.5.8h.5l-.7-1a3.42,3.42,0,0,0-2-1.6,6.65,6.65,0,0,0-2.9,1.2L6.3,11.5a6.2,6.2,0,0,0-2.2,2.1A3.07,3.07,0,0,0,4.9,16l2,2.8a3.42,3.42,0,0,0,2,1.6h0a2.7,2.7,0,0,1-.7-.8A2.84,2.84,0,0,1,7.2,18.7Z" transform="translate(0 0)" style="fill:#3f3f3f;stroke:#3f3f3f;stroke-miterlimit:10;stroke-width:0.25px"/>
    <path xmlns="http://www.w3.org/2000/svg" d="M20.7,10.5c-.4-1.2-.9-1.8-1.5-2a5.66,5.66,0,0,0-3.1.5L8.8,11.4a4.87,4.87,0,0,0-2.7,1.5,3.11,3.11,0,0,0,.1,2.5l1.1,3.2c.4,1.2.9,1.8,1.5,2,.1,0,.3.1.4.1-.1-.1-.2-.3-.3-.4a3.22,3.22,0,0,1-1.2-1.8L6.5,15.3a2.44,2.44,0,0,1-.1-2.2,4.74,4.74,0,0,1,2.4-1.3l7.3-2.5A5,5,0,0,1,19,8.8c.5.2.9.8,1.3,1.8l.4,1.2.5.1Z" transform="translate(0 0)" style="fill:#ff8050;stroke:#ff8050;stroke-miterlimit:10;stroke-width:0.25px"/>
    <path xmlns="http://www.w3.org/2000/svg" d="M7.7,18V14.6a3,3,0,0,1,.7-2.4,5.33,5.33,0,0,1,3.1-.6h7.7a5.33,5.33,0,0,1,3.1.6,3,3,0,0,1,.7,2.4V18a3,3,0,0,1-.7,2.4,5.33,5.33,0,0,1-3.1.6H11.5a5.33,5.33,0,0,1-3.1-.6C7.9,20.1,7.7,19.3,7.7,18Zm3.7,2.7h7.7a5.75,5.75,0,0,0,2.8-.5c.4-.3.6-1,.6-2.2V14.6a3,3,0,0,0-.6-2.2,5.22,5.22,0,0,0-2.8-.5H11.4a5.75,5.75,0,0,0-2.8.5c-.4.3-.6,1-.6,2.2V18a3,3,0,0,0,.6,2.2A5.75,5.75,0,0,0,11.4,20.7Z" transform="translate(0 0)" style="fill:#3f3f3f"/>
    <path xmlns="http://www.w3.org/2000/svg" d="M7.7,18V14.6a3,3,0,0,1,.7-2.4,5.33,5.33,0,0,1,3.1-.6h7.7a5.33,5.33,0,0,1,3.1.6,3,3,0,0,1,.7,2.4V18a3,3,0,0,1-.7,2.4,5.33,5.33,0,0,1-3.1.6H11.5a5.33,5.33,0,0,1-3.1-.6C7.9,20.1,7.7,19.3,7.7,18Zm3.7,2.7h7.7a5.75,5.75,0,0,0,2.8-.5c.4-.3.6-1,.6-2.2V14.6a3,3,0,0,0-.6-2.2,5.22,5.22,0,0,0-2.8-.5H11.4a5.75,5.75,0,0,0-2.8.5c-.4.3-.6,1-.6,2.2V18a3,3,0,0,0,.6,2.2A5.75,5.75,0,0,0,11.4,20.7Z" transform="translate(0 0)" style="fill:none;stroke:#3f3f3f;stroke-miterlimit:10;stroke-width:0.25px"/>
  </symbol>
  <symbol id="privacy" viewBox="0 0 27.2 27.2">
    <path xmlns="http://www.w3.org/2000/svg" d="M12.7,5.8c0-.6.3-1,.9-1s.9.3.9,1a4.8,4.8,0,0,1,3.6,2.1,9.65,9.65,0,0,1,.9,2,11.13,11.13,0,0,1,.4,2.3V13a4.21,4.21,0,0,0,.4,2,14,14,0,0,0,1.6,2.4l.4.6a2,2,0,0,1,.5,1.3c0,.9-.8,1.7-2.5,2.3a19.09,19.09,0,0,1-6.3.9,18.29,18.29,0,0,1-6.3-.9c-1.6-.6-2.5-1.4-2.5-2.3A2.66,2.66,0,0,1,5.2,18l.4-.6A12.07,12.07,0,0,0,7.2,15a4.21,4.21,0,0,0,.4-2v-.8A6.56,6.56,0,0,1,8,9.9,21.72,21.72,0,0,1,9,7.8,4.78,4.78,0,0,1,12.7,5.8ZM8.4,17.5q-3,.9-3,1.8,0,1.05,2.4,1.8a19.59,19.59,0,0,0,5.8.7,19.59,19.59,0,0,0,5.8-.7q2.4-.75,2.4-1.8c0-.6-.8-1.2-2.5-1.6a20.23,20.23,0,0,0-5.7-.7H12.4a1.09,1.09,0,0,1,.1.5,2,2,0,0,1-.6,1.5,2,2,0,0,1-1.4.6,2.05,2.05,0,0,1-2.1-2.1Zm-2.1.1a19.93,19.93,0,0,1,7.3-1.2,20.31,20.31,0,0,1,7.3,1.2,15.47,15.47,0,0,1-1.6-2.5,4.06,4.06,0,0,1-.4-1.9v-1a7.09,7.09,0,0,0-1-3.9,4.43,4.43,0,0,0-4.2-2.1A4.43,4.43,0,0,0,9.5,8.3a8.05,8.05,0,0,0-1,3.9v1a4.06,4.06,0,0,1-.4,1.9C7.7,15.6,7.2,16.5,6.3,17.6Z" transform="translate(0 0)" style="fill:#3f3f3f;stroke:#3f3f3f;stroke-miterlimit:10;stroke-width:0.5px"/>
  </symbol>
  <symbol id="response" viewBox="0 0 27.2 27.2">
    <path xmlns="http://www.w3.org/2000/svg" d="M15.5,15a3.54,3.54,0,0,1-1.6,3,6.23,6.23,0,0,1-3.8,1.3A7.61,7.61,0,0,1,8,19a2,2,0,0,1-2.1,2,3.74,3.74,0,0,1-1.5-.5,1.85,1.85,0,0,0,1.2-.7,2.46,2.46,0,0,0,.5-1.5V18a3.65,3.65,0,0,1-1.5-2.9,3.54,3.54,0,0,1,1.6-3A6,6,0,0,1,10,10.9a6.45,6.45,0,0,1,3.9,1.2A3.48,3.48,0,0,1,15.5,15Zm7.3-4.7a4,4,0,0,1-2,3.3v.6a2,2,0,0,0,.5,1.4s.4.4,1,.9a4.4,4.4,0,0,1-2.5-.6,3,3,0,0,1-1.1-1.5,5.7,5.7,0,0,1-1.3.1,10,10,0,0,1-1.6-.2A5.12,5.12,0,0,0,14.4,12,4.23,4.23,0,0,0,12,10.8v-.5a3.37,3.37,0,0,1,1.6-2.9,6.56,6.56,0,0,1,3.8-1.1,6.56,6.56,0,0,1,3.8,1.1A3.5,3.5,0,0,1,22.8,10.3Z" transform="translate(0 0)" style="fill:#3f3f3f"/>
  </symbol>
  <symbol id="zakaz" viewBox="0 0 27.2 27.2">
    <path xmlns="http://www.w3.org/2000/svg" d="M20.5,8.2V20.4H6.6V7.8H20A14.8,14.8,0,0,0,21.3,7l.3.4Zm-7.4,9-.4.2a3.49,3.49,0,0,0-.9.6c-.1-.2-.2-.5-.4-1l-.2-.5A12.55,12.55,0,0,0,10,14.3a2,2,0,0,0-1-.7,2.42,2.42,0,0,1,1.3-.6c.5,0,1.1.6,1.7,1.9l.3.7a25.6,25.6,0,0,1,6.5-7.1H7.5V19.4h12V8.9a24.49,24.49,0,0,0-3.9,4A22.32,22.32,0,0,0,13.1,17.2Z" transform="translate(0 0)" style="fill:#3f3f3f;stroke:#3f3f3f;stroke-miterlimit:10;stroke-width:0.5px"/>
  </symbol>
  <!-- FOOTER SOCIAL APPS ++++++++++++++++++++++++++++++++++++++++++++++++++++++++++++++++++++++++++++++ -->
  <symbol id="facebook" viewBox="0 0 59 59">
      <path xmlns="http://www.w3.org/2000/svg" d="M61,31.5A29.5,29.5,0,1,1,31.5,2,29.49,29.49,0,0,1,61,31.5Zm-33.4-.9V49.8H34V30.6h4.7V25.9H34V24c0-2.3,1.2-3.4,3.6-3.4a9.2,9.2,0,0,1,1.9.2l.1-4.9a14.53,14.53,0,0,0-3.2-.4,9,9,0,0,0-6.5,2.2,8.3,8.3,0,0,0-2.3,6.2v2H24v4.7Z" transform="translate(-2 -2)" style="fill-rule:evenodd"/>
  </symbol>
  <symbol id="whatsapp" viewBox="0 0 59 59">
    <path xmlns="http://www.w3.org/2000/svg" d="M32,61.5A29.5,29.5,0,1,0,2.5,32,29.49,29.49,0,0,0,32,61.5Zm0-44.8A14.2,14.2,0,0,1,42.3,21a14.3,14.3,0,0,1,4.4,10.3A14.7,14.7,0,0,1,31.9,45.8h0a14.31,14.31,0,0,1-7-1.8l-7.8,2,2.1-7.5a14.21,14.21,0,0,1-1.9-7.3A14.68,14.68,0,0,1,32,16.7ZM25.8,41.6A12.27,12.27,0,0,0,44.3,31.2,12.3,12.3,0,0,0,32,19.2,12.16,12.16,0,0,0,19.8,31.3a11.18,11.18,0,0,0,1.9,6.4l.3.5-1.2,4.5,4.6-1.2Zm10.4-8.5c.3.1,2.1,1,2.5,1.2.1,0,.1.1.2.1.3.1.5.2.5.4a2.82,2.82,0,0,1-.2,1.7,3.6,3.6,0,0,1-2.5,1.7c-1.2.2-2.1.1-4.4-.9a16.53,16.53,0,0,1-6.2-5.4l-.1-.1h0a7.22,7.22,0,0,1-1.5-3.7,4.21,4.21,0,0,1,1.2-3l.1-.1a1.22,1.22,0,0,1,1-.5h.8c.2,0,.5,0,.7.6.1.2.2.5.4.9a11.8,11.8,0,0,0,.8,1.8c.1.2.2.4,0,.6a3.09,3.09,0,0,1-.9,1.2c-.3.3-.4.4-.2.8a9.44,9.44,0,0,0,5,4.3c.4.2.6.2.8-.1s.9-1.1,1.2-1.4S35.8,32.9,36.2,33.1Z" transform="translate(-2.5 -2.5)" style="fill-rule:evenodd"/>
  </symbol>
  <symbol id="telegram" viewBox="0 0 59 59.09">
    <path xmlns="http://www.w3.org/2000/svg" d="M31.5,2A29.55,29.55,0,1,0,61,31.55,29.51,29.51,0,0,0,31.5,2ZM46,22.24,41.15,45.09c-.36,1.62-1.32,2-2.67,1.25L31.11,40.9l-3.56,3.43a1.86,1.86,0,0,1-1.49.73l.53-7.52L40.25,25.17c.6-.52-.13-.82-.91-.29L22.45,35.53l-7.28-2.28c-1.58-.5-1.62-1.58.33-2.35l28.44-11c1.32-.48,2.48.32,2.05,2.32Z" transform="translate(-2 -2)" style="fill-rule:evenodd"/>
  </symbol>
  <symbol id="ok" viewBox="0 0 59 59">
    <path xmlns="http://www.w3.org/2000/svg" d="M32,61.5A29.5,29.5,0,1,0,2.5,32,29.49,29.49,0,0,0,32,61.5Zm3.2-40.7a3.47,3.47,0,0,0-2.5-1,4,4,0,0,0-2.5,1,3.47,3.47,0,0,0-1,2.5,4,4,0,0,0,1,2.5,3.47,3.47,0,0,0,2.5,1,4,4,0,0,0,2.5-1,3.47,3.47,0,0,0,1-2.5A4,4,0,0,0,35.2,20.8Zm6,2.5a8.5,8.5,0,1,1-8.5-8.5A8.49,8.49,0,0,1,41.2,23.3Zm-.1,13.5a14.91,14.91,0,0,1-4.9,2h0L41,43.6a2.18,2.18,0,0,1,.5.8,3,3,0,0,1,.2,1,3.55,3.55,0,0,1-.2,1,2.1,2.1,0,0,1-1.3,1.3,3,3,0,0,1-1,.2,3.55,3.55,0,0,1-1-.2,2.18,2.18,0,0,1-.8-.5l-4.7-4.7L28,47.1a2.41,2.41,0,0,1-1.8.7,2.87,2.87,0,0,1-1.8-.7,2.41,2.41,0,0,1-.7-1.8,2.87,2.87,0,0,1,.7-1.8l4.7-4.8a17.44,17.44,0,0,1-4.9-2,2.34,2.34,0,0,1-.7-.7,3.55,3.55,0,0,1-.4-.9,1.7,1.7,0,0,1,0-1,3.55,3.55,0,0,1,.4-.9,2.34,2.34,0,0,1,.7-.7,3.55,3.55,0,0,1,.9-.4,1.7,1.7,0,0,1,1,0,3.55,3.55,0,0,1,.9.4,10.46,10.46,0,0,0,5.7,1.6,11.39,11.39,0,0,0,5.7-1.6,3.55,3.55,0,0,1,.9-.4,3.35,3.35,0,0,1,1,0,3.55,3.55,0,0,1,.9.4,2.34,2.34,0,0,1,.7.7,3.55,3.55,0,0,1,.4.9,3.35,3.35,0,0,1,0,1,3.55,3.55,0,0,1-.4.9A5.93,5.93,0,0,1,41.1,36.8Z" transform="translate(-2.5 -2.5)" style="fill-rule:evenodd"/>
  </symbol>
  <symbol id="vk" viewBox="0 0 59 59">
    <path xmlns="http://www.w3.org/2000/svg" d="M31.5,2A29.5,29.5,0,1,0,61,31.5,29.55,29.55,0,0,0,31.5,2Zm15,32.7a52.86,52.86,0,0,1,4.1,4.1,15.94,15.94,0,0,1,1.5,2.1c.6,1.1.1,2.3-.9,2.3h-6a4.8,4.8,0,0,1-3.9-1.6c-.8-.9-1.6-1.8-2.4-2.6a5.24,5.24,0,0,0-1.1-1,1.26,1.26,0,0,0-2,.5,5.46,5.46,0,0,0-.6,2.8c-.1,1.4-.5,1.8-1.9,1.9a15,15,0,0,1-8.6-1.9,20,20,0,0,1-5.8-5.4,76.53,76.53,0,0,1-7.7-13.7c-.5-1.1-.1-1.7,1.1-1.7h5.9a1.71,1.71,0,0,1,1.6,1.2,40.6,40.6,0,0,0,4,7.4,8,8,0,0,0,1.5,1.7c.7.5,1.2.3,1.6-.5a4.15,4.15,0,0,0,.3-1.6,20.34,20.34,0,0,0-.1-5.5,2.34,2.34,0,0,0-1.9-2.1c-.6-.1-.5-.3-.2-.7a2.08,2.08,0,0,1,1.9-.9h6.8c1.1.2,1.3.7,1.5,1.8v7.6c0,.4.2,1.7,1,1.9.6.2,1-.3,1.4-.7a22.9,22.9,0,0,0,3.8-5.9,14.76,14.76,0,0,0,1.2-2.9,1.5,1.5,0,0,1,1.5-1.1h7.2c1.1.2,1.4.7,1.1,1.7a15.55,15.55,0,0,1-2.6,4.5c-1.1,1.5-2.3,3-3.4,4.5C45.1,32.8,45.2,33.5,46.5,34.7Z" transform="translate(-2 -2)" style="fill-rule:evenodd"/>
  </symbol>
  <!-- FOOTER MOBILE MENU ++++++++++++++++++++++++++++++++++++++++++++++++++++++++++++++++++++++++++++++ -->
  <symbol id="mobile_home" viewBox="0 0 29.35 25.59">
    <path xmlns="http://www.w3.org/2000/svg" d="M30.27,13,16.67,3.3A1.65,1.65,0,0,0,16,3.13a1.16,1.16,0,0,0-.63.17L1.73,13a1.18,1.18,0,0,0,.77,2.06,1,1,0,0,0,.56-.16L16,5.65,28.93,14.9a1.6,1.6,0,0,0,.67.22,1.14,1.14,0,0,0,.9-.55A1.19,1.19,0,0,0,30.27,13ZM16,3.25a1.46,1.46,0,0,1,.64.15A1.46,1.46,0,0,0,16,3.25a1,1,0,0,0-.56.15A1,1,0,0,1,16,3.25ZM1.6,14.4a1.31,1.31,0,0,0,.24.28A1.31,1.31,0,0,1,1.6,14.4Zm.63.5a1,1,0,0,0,.34,0H2.5A.84.84,0,0,1,2.23,14.9Zm-.31-.16a1.08,1.08,0,0,0,.28.15A1.08,1.08,0,0,1,1.92,14.74Zm.73.18A.91.91,0,0,0,3,14.8.91.91,0,0,1,2.65,14.92Z" transform="translate(-1.35 -3.13)" style="fill-rule:evenodd"/>
    <path xmlns="http://www.w3.org/2000/svg" d="M27,14.88A1.06,1.06,0,0,0,25.88,16v9.53a.87.87,0,0,1-.88.88H21.18V19.67a1.08,1.08,0,0,0-1.08-1.08H12.22a1.31,1.31,0,0,0-1.31,1.31v6.51H7.4a.87.87,0,0,1-.88-.88V16A1.06,1.06,0,0,0,5.4,14.88,1.11,1.11,0,0,0,4.23,16v9.7a3.09,3.09,0,0,0,3.08,3h4.8a1.12,1.12,0,0,0,1.12-1.12V20.92h5.65v6.55a1.25,1.25,0,0,0,1.26,1.25h5a3.06,3.06,0,0,0,3.09-3V16A1.11,1.11,0,0,0,27,14.88Z" transform="translate(-1.35 -3.13)" style="fill-rule:evenodd"/>
  </symbol>
  <symbol id="mobile_catalog" viewBox="0 0 30 21.54">
    <path xmlns="http://www.w3.org/2000/svg" d="M29,0H1C.42,0,0,.55,0,1.26A1,1,0,0,0,1,2.37H29c.62,0,1-.4,1-1.11S29.56,0,29,0Z" transform="translate(0.02 -0.04)" style="fill-rule:evenodd"/>
    <path xmlns="http://www.w3.org/2000/svg" d="M1.42,11.94H20.55A1.26,1.26,0,0,0,22,10.72c0-.78-.64-1.13-1.42-1.13H1.42C.63,9.59,0,9.94,0,10.72A1.26,1.26,0,0,0,1.42,11.94Z" transform="translate(0.02 -0.04)" style="fill-rule:evenodd"/>
    <path xmlns="http://www.w3.org/2000/svg" d="M28.77,19.23H1.21c-.73.07-1.27.49-1.22,1.22s.51,1,1.21,1.13H28.77c.78-.13,1.31-.63,1.18-1.41C29.85,19.56,29.37,19.33,28.77,19.23Z" transform="translate(0.02 -0.04)" style="fill-rule:evenodd"/>
  </symbol>
  <symbol id="mobile_favorite" viewBox="0 0 29.24 24.84">
    <path xmlns="http://www.w3.org/2000/svg" d="M27.47,5.21a7.91,7.91,0,0,0-4.82-1.6,8.31,8.31,0,0,0-5.94,2.51L16,6.83l-.92-.91A7.94,7.94,0,0,0,9.4,3.58H9.22A7.84,7.84,0,0,0,1.38,11.4a8.12,8.12,0,0,0,2.44,6.08l10,10a3,3,0,0,0,2.18.94,3.34,3.34,0,0,0,2.18-.83L28.29,17.38a5.21,5.21,0,0,0,.71-.81A8.21,8.21,0,0,0,27.47,5.21ZM16.1,26.28a.89.89,0,0,1-.62-.26l-10-10A6.56,6.56,0,0,1,3.62,11.5,5.93,5.93,0,0,1,5.38,7.38a5.77,5.77,0,0,1,4-1.66,6.33,6.33,0,0,1,4.22,1.77l1.6,1.59a1.06,1.06,0,0,0,1.56,0l1.6-1.39a6.13,6.13,0,0,1,8-.69,6.21,6.21,0,0,1,2.25,4.31,5.92,5.92,0,0,1-1.66,4.51L16.72,26A.89.89,0,0,1,16.1,26.28Zm7-20.53.41,0Zm1,.14.39.09Zm1,.34a2.26,2.26,0,0,1,.33.13A2.26,2.26,0,0,0,25.15,6.23ZM23.79,3.82l.17,0ZM25,4.1l.19.06Zm1.21.49.15.08ZM22.18,5.75h0Zm-3.1,1.17.11-.08ZM20,6.35l.16-.07ZM21.07,6l.15,0Zm-2.4-1.19L19,4.62Zm.7-.35.3-.12Zm.72-.27.3-.1Zm.76-.21a2.47,2.47,0,0,1,.29-.06A2.47,2.47,0,0,0,20.85,3.94Zm.79-.14.26,0Zm1-.07h0ZM18.27,5,18,5.18Zm-.68.49-.21.16ZM9.4,3.7h0ZM5.23,4.8l.34-.19Zm.66-.35.36-.17Zm.71-.29L7,4Zm.73-.22.39-.1Zm.77-.15.4-.06ZM4.92,5l-.31.23Zm-.6.44A3.45,3.45,0,0,0,4,5.69,3.45,3.45,0,0,1,4.32,5.43Zm-.55.5a3.58,3.58,0,0,0-.26.29A3.58,3.58,0,0,1,3.77,5.93ZM1.54,10.61a6.85,6.85,0,0,0,0,.79A6.85,6.85,0,0,1,1.54,10.61ZM3.27,6.48,3,6.8Zm-.45.59-.21.35Zm-.39.64c-.06.12-.12.25-.17.37C2.31,8,2.37,7.83,2.43,7.71Zm-.32.68c-.06.13-.1.26-.15.4C2,8.65,2.05,8.52,2.11,8.39Zm-.26.71c-.05.14-.08.29-.12.44C1.77,9.39,1.8,9.24,1.85,9.1Zm-.19.74a4.67,4.67,0,0,0-.08.52A4.67,4.67,0,0,1,1.66,9.84Z" transform="translate(-1.37 -3.58)" style="fill-rule:evenodd"/>
  </symbol>
  <symbol id="mobile_profile" viewBox="0 0 24.44 29.09">
    <path xmlns="http://www.w3.org/2000/svg" d="M6.4,11.1A9.6,9.6,0,1,0,16,1.5,9.6,9.6,0,0,0,6.4,11.1Zm16.9,0A7.3,7.3,0,1,1,16,3.8,7.34,7.34,0,0,1,23.3,11.1Z" transform="translate(-3.79 -1.5)" style="fill-rule:evenodd"/>
    <path xmlns="http://www.w3.org/2000/svg" d="M4.1,30.2a1.09,1.09,0,0,0,1.5.1,15.82,15.82,0,0,1,20.8,0,1,1,0,0,0,1.5-.1h0a1.16,1.16,0,0,0-.1-1.7,18.06,18.06,0,0,0-23.63,0,1.24,1.24,0,0,0-.07,1.7Z" transform="translate(-3.79 -1.5)" style="fill-rule:evenodd"/>
  </symbol>
  <symbol id="mobile_cart" viewBox="0 0 28.99 29">
    <path xmlns="http://www.w3.org/2000/svg" d="M1.5,2.5a1,1,0,0,1,1-1h.9a3.23,3.23,0,0,1,2.9,2,19.45,19.45,0,0,1,.8,2.2H28.4a2,2,0,0,1,2,2.6L27.3,19.2a4.08,4.08,0,0,1-4,3H12.8a4.06,4.06,0,0,1-4-3.1L7.5,14.2v-.1L5.3,7a1.45,1.45,0,0,0-.2-.7c-.2-.7-.4-1.4-.6-1.9s-.6-.8-1-.8h-1A1.1,1.1,0,0,1,1.5,2.5Zm8,11.2,1.4,5a2,2,0,0,0,2,1.5H23.4a2.13,2.13,0,0,0,2-1.5L28.5,7.8H7.7Z" transform="translate(-1.5 -1.5)" style="fill-rule:evenodd"/>
    <path xmlns="http://www.w3.org/2000/svg" d="M16,27.4a3.1,3.1,0,1,1-3.1-3.1A3.12,3.12,0,0,1,16,27.4Zm-2.1,0a1,1,0,1,0-1,1A.94.94,0,0,0,13.9,27.4Z" transform="translate(-1.5 -1.5)" style="fill-rule:evenodd"/>
    <path xmlns="http://www.w3.org/2000/svg" d="M26.4,27.4a3.1,3.1,0,1,1-3.1-3.1A3.12,3.12,0,0,1,26.4,27.4Zm-2.1,0a1,1,0,0,0-1-1,1.08,1.08,0,0,0-1,1,1,1,0,0,0,2,0Z" transform="translate(-1.5 -1.5)" style="fill-rule:evenodd"/>
  </symbol>
</svg>