<?xml version="1.0" encoding="utf-8"?>
<!-- Generator: Adobe Illustrator 25.2.1, SVG Export Plug-In . SVG Version: 6.00 Build 0)  -->
<svg version="1.1" id="Layer_1" xmlns="http://www.w3.org/2000/svg" xmlns:xlink="http://www.w3.org/1999/xlink" x="0px" y="0px"
	 viewBox="0 0 53.7 53.7" style="enable-background:new 0 0 53.7 53.7;" xml:space="preserve">
<style type="text/css">
	.st0{opacity:0.8;fill:#FFFFFF;enable-background:new    ;}
	.st1{fill:#3D3B3B;}
</style>
<circle class="st0" cx="27" cy="27" r="25"/>
<g>
	<path class="st1" d="M34.5,19.2h3.1l-4.8-8.1c-0.3-0.7-1.2-0.8-1.8-0.5c-0.7,0.3-0.8,1.2-0.5,1.8L34.5,19.2z"/>
	<path class="st1" d="M23.6,12.4c0.3-0.7,0.2-1.5-0.5-2c-0.7-0.3-1.5-0.2-2,0.5l-4.6,8.2h3.1L23.6,12.4z"/>
	<path class="st1" d="M42.9,21.6H11.1c-1.3,0-2.3,1-2.3,2.3v2.6c0,1.3,1,2.3,2.3,2.3h0.7L14.1,41c0.3,1.5,1.6,2.6,3,2.6h0.8h5.9
		c0.7,0,1.3,0,2.1,0h0.7h0.7c0.8,0,1.6,0,2.1,0h5.9h0.8c1.3,0,2.6-1.2,3-2.6l2.3-12.2h1.5c1.3,0,2.3-1,2.3-2.3V24
		C45.2,22.6,44.2,21.6,42.9,21.6z M21.8,33.8v5.3c0,0.8-0.7,1.3-1.3,1.3c-0.8,0-1.3-0.7-1.3-1.3V37v-5.3c0-0.8,0.7-1.3,1.3-1.3
		c0.8,0,1.3,0.7,1.3,1.3V33.8z M25.9,33.8v5.3c0,0.8-0.7,1.3-1.3,1.3c-0.8,0-1.3-0.7-1.3-1.3V37v-5.3c0-0.8,0.7-1.3,1.3-1.3
		c0.7,0,1.3,0.7,1.3,1.3V33.8z M30.2,37v2.1c0,0.7-0.5,1.3-1.3,1.3c-0.7,0-1.3-0.5-1.3-1.3v-5.3v-2.1c0-0.7,0.7-1.3,1.3-1.3
		c0.7,0,1.3,0.5,1.3,1.3V37z M34.5,37v2.1c0,0.7-0.5,1.3-1.3,1.3c-0.7,0-1.3-0.5-1.3-1.3v-5.3v-2.1c0-0.7,0.5-1.3,1.3-1.3
		c0.7,0,1.3,0.5,1.3,1.3V37z"/>
</g>
</svg>
