<?xml version="1.0" encoding="utf-8"?>
<!-- Generator: Adobe Illustrator 25.2.1, SVG Export Plug-In . SVG Version: 6.00 Build 0)  -->
<svg version="1.1" id="Слой_1" xmlns="http://www.w3.org/2000/svg" xmlns:xlink="http://www.w3.org/1999/xlink" x="0px" y="0px"
	 viewBox="0 0 60.9 26.7" style="enable-background:new 0 0 60.9 26.7;" xml:space="preserve">
<style type="text/css">
	.st0{opacity:0.17;fill:#71ABEF;enable-background:new    ;}
	.st1{opacity:0.17;fill:#22C55E;enable-background:new    ;}
</style>
<path class="st0" d="M7.9,25.6c12.9,0,23.4-10.5,23.4-23.4H25c0,9.4-7.6,17.1-17.1,17.1C7.9,19.3,7.9,25.6,7.9,25.6z M31.2,2.3
	c0-12.9-10.5-23.4-23.4-23.4v6.3c9.4,0,17.1,7.6,17.1,17.1C24.9,2.3,31.2,2.3,31.2,2.3z M7.9-21.1C-5-21.1-15.5-10.6-15.5,2.3h6.3
	c0-9.4,7.6-17.1,17.1-17.1C7.9-14.8,7.9-21.1,7.9-21.1z M-15.5,2.3c0,12.9,10.5,23.4,23.4,23.4v-6.3c-9.4,0-17.1-7.6-17.1-17.1
	C-9.2,2.3-15.5,2.3-15.5,2.3z M7.9,13.9c6.4,0,11.7-5.2,11.7-11.7h-6.3c0,3-2.4,5.4-5.4,5.4V13.9z M19.5,2.3
	c0-6.4-5.2-11.7-11.7-11.7v6.3c3,0,5.4,2.4,5.4,5.4C13.2,2.3,19.5,2.3,19.5,2.3z M7.9-9.4C1.4-9.4-3.8-4.2-3.8,2.3h6.3
	c0-3,2.4-5.4,5.4-5.4C7.9-3.1,7.9-9.4,7.9-9.4z M-3.8,2.3C-3.8,8.7,1.4,14,7.9,14V7.6c-3,0-5.4-2.4-5.4-5.4h-6.3V2.3z"/>
<path class="st1" d="M78.3,26.7c0-9.6-7.9-17.5-17.5-17.5v4.7c7,0,12.8,5.7,12.8,12.8C73.6,26.7,78.3,26.7,78.3,26.7z M60.9,9.3
	c-9.6,0-17.5,7.9-17.5,17.5h4.7c0-7,5.7-12.8,12.8-12.8C60.9,14,60.9,9.3,60.9,9.3z M43.4,26.7c0,9.6,7.9,17.5,17.5,17.5v-4.7
	c-7,0-12.8-5.7-12.8-12.8C48.1,26.7,43.4,26.7,43.4,26.7z M60.9,44.2c9.6,0,17.5-7.9,17.5-17.5h-4.7c0,7-5.7,12.8-12.8,12.8
	C60.9,39.5,60.9,44.2,60.9,44.2z M69.6,26.7c0-4.8-3.9-8.8-8.8-8.8v4.7c2.2,0,4,1.8,4,4H69.6z M60.9,18c-4.8,0-8.8,3.9-8.8,8.8h4.7
	c0-2.2,1.8-4,4-4C60.9,22.7,60.9,18,60.9,18z M52.2,26.7c0,4.9,3.9,8.8,8.8,8.8v-4.7c-2.2,0-4-1.8-4-4
	C56.9,26.7,52.2,26.7,52.2,26.7z M60.9,35.5c4.8,0,8.7-3.9,8.7-8.8h-4.8c0,2.2-1.8,4-4,4L60.9,35.5L60.9,35.5z"/>
</svg>
